<?xml version="1.0" encoding="UTF-8"?>
<svg id="Layer_2" data-name="Layer 2" xmlns="http://www.w3.org/2000/svg" viewBox="0 0 1020.39 468.77">
  <defs>
    <style>
      .cls-1 {
        fill: #ffe01b;
      }

      .cls-2 {
        fill: #fff;
      }

      .cls-3 {
        fill: #1feac1;
      }

      .cls-4 {
        fill: #f1d125;
      }

      .cls-5 {
        fill: #51e6e3;
      }
    </style>
  </defs>
  <g id="Layer_1-2" data-name="Layer 1">
    <g>
      <path class="cls-1" d="M944.84,350.72c-3.8-12.42-14.03-19.03-26.8-17.75-10.33,1.04-17.96,6.88-25.9,14.88l6.65-55.18-27.5.07-16.38,135.25,16.6.12c4.52.03,7.24-2.92,8.81-7.87,7.34,7.56,16.78,10.83,27.2,8.7,30.74-6.26,46.19-50.24,37.33-78.23ZM910.52,400.62c-6.1,8.92-16.77,10.58-25.49,4.1.95-7.38,1.4-14.65,2.97-21.99,2.17-10.11,12.65-31.54,24.11-28.6,10.78,2.76,9.04,30.97-1.59,46.5Z"/>
      <path class="cls-1" d="M810.12,334.59c-33.91,8.24-54.33,43.59-44.71,76.77,4.33,14.96,19.49,21.64,33.54,16.44,7.37-2.72,12.26-7.83,17.93-14.04l.64,7.83c.28,3.41,3.35,6.48,7.04,6.47l16.87-.06,11.36-91.02c-13.85-4.41-28.41-5.86-42.67-2.39ZM819.58,378.66c-1.76,9.04-9.78,30.25-21.1,28.37-9.96-1.65-10.04-27.67.4-42.62,5.65-8.09,14.3-12.97,24.24-12.26-1.1,8.99-1.83,17.71-3.54,26.51Z"/>
      <path class="cls-1" d="M999.05,374.22l-15.25-6.64c-3.28-1.43-5.57-4.96-5.22-8.01.36-3.17,2.68-6.05,5.9-6.88,6.66-1.72,12.64-.1,18.58,3.26,2.22,1.25,7.01,2.16,8.67-.1l8.66-11.75c-10.81-10.4-25.04-13.23-39.35-10.3-18.59,3.81-30.59,20.96-26.49,39.71,1.4,6.42,6.55,11.44,12.61,13.89l15.52,6.3c3.1,1.26,5.46,4.66,5.47,7.45,0,3.21-2.01,6.61-5.2,7.88-6.86,2.72-14.05.85-19.75-3.54-4.02-3.1-9.6-2.66-12.44,1.67l-7.06,10.74c13.17,13.64,36.41,14.97,52.77,5.66,12.75-7.26,19.14-21.3,15.75-35.18-1.62-6.63-7.11-11.51-13.19-14.16Z"/>
      <polygon class="cls-1" points="737.92 292.73 721.52 427.76 749.27 427.75 765.66 292.73 737.92 292.73"/>
    </g>
    <g>
      <path class="cls-3" d="M422.99,348.04c-17.5-23-52.88-20.21-70.77,1.05-13.07,15.53-14.9,37.35-4.76,55.17,9.18,16.14,27.75,26.03,47.26,24.07,11.28-1.13,20.56-6.33,27.88-15.67,1.87,11.28-1.08,22.94-10.23,29.88-12.58,9.54-35.63,8-43.65-7.23l-22.39.09c7.21,25.61,33.5,36.7,57.39,32.51,25.28-4.44,40.91-24.73,40.92-49.72l.03-83.74-21.33-.08-.34,13.68ZM414.43,400.58c-13.47,12.5-34.57,10.69-45.64-3.59-5.89-7.6-7.05-17.01-3.95-26.41,2.56-7.78,9.22-14.68,18.2-17.7,12.48-4.2,26.01-.74,34.28,9.65,9.14,11.49,8.32,27.65-2.89,38.05Z"/>
      <path class="cls-3" d="M193.58,401.52l-.66-35.32c-.13-7.25-2.62-14.46-6.75-20.21-7.07-9.84-18.56-14.2-30.53-13.95-12.86.27-24.03,6.2-30.85,17.6-5.24-10.1-14.28-15.73-25-17.27-13.08-1.88-24.65,2.6-32.99,13.47l-.89-11.51-21.01.19.12,93.63,21.23-.17.21-55.68c.05-12.23,10.29-20.71,22.02-20.55,10.59.14,19.93,7.74,19.97,18.79l.16,57.58h21.3s.13-54.99.13-54.99c.03-12.17,8.84-21.19,21.7-21.07,11.31.11,19.79,8.35,19.9,19.33l.33,34.11c.11,11.24,8.24,19.97,18.97,22.01,4.84.92,9.19.73,14.58.37l-.19-20.48c-4.89.51-11.66-.71-11.76-5.87Z"/>
      <path class="cls-3" d="M320.7,405.32c-1.6-1.41-2.83-4.92-2.83-7.44l-.1-63.41-21.33-.1-.46,13.62c-17.03-20.41-46.11-20.5-64.87-5.67-12.45,9.84-19.51,25.34-18.31,42.23,2.21,31.14,33.16,52.21,62.99,43.36,9.12-2.7,16.07-7.95,21.79-15.94,5.43,15.28,18.18,17.13,32.05,16.02l-.14-20.21c-4.71-.31-6.8-.7-8.79-2.45ZM291.82,394.67c-8.59,14.26-26.68,18.88-41.1,11.62-8.91-4.49-14.41-12.92-15.6-21.76-1.38-10.19,2.35-19.77,10.2-26.22,14.04-11.54,35.07-8.91,45.51,5.88,6.46,9.15,7.04,20.45.99,30.49Z"/>
      <path class="cls-3" d="M715.46,375.71c-2.67-25.4-22.86-43.1-48.16-43.86-23.14-.7-43.55,12.75-50.18,34.52-6.56,21.53,1.94,45.19,22.01,56.6,25.82,14.68,65.26,5.78,74.15-23.95l-22.69-.13c-5.29,8.52-14.23,12.37-24.59,12.23-13.92-.19-25.92-8.78-28.75-22.48l77.25-.04c1.67-4.13,1.42-8.48.96-12.89ZM637.96,371.23c3.62-13.26,15.95-20.83,29.35-20.15,11.44.69,22.04,6.65,25.05,20.01l-54.41.14Z"/>
      <polygon class="cls-3" points="2.39 428.19 23.91 428.07 23.92 334.37 2.34 334.51 2.39 428.19"/>
      <path class="cls-3" d="M11.77,293.84c-5.78.55-9.93,4.54-11.27,9.32-1.54,5.49.58,10.8,4.42,13.83,4.55,3.6,10.39,3.77,15.61.66,5.68-3.38,7.27-9.95,5.18-15.56-2.03-5.45-7.62-8.85-13.94-8.25Z"/>
      <polygon class="cls-3" points="468.68 428.15 490.34 428.14 490.35 334.39 468.64 334.53 468.68 428.15"/>
    </g>
    <path class="cls-3" d="M594.44,343.79c-6.5-7.65-16-11.8-27.47-12.01-11.04-.21-22.63,4.04-32.89,11.99-3-4.18-5.21-6.76-5.49-7.08-3.48-4.02-9.77-4.8-14.31-1.76-2.29,1.53-3.8,3.88-4.15,6.45-.34,2.52.42,5,2.15,6.99.04.04,3.43,3.99,7.5,10.25-1.41,1.94-2.73,3.95-3.93,5.97-10.06,16.13-18.43,49.93-8.66,66.16,3.61,6,9.5,9.63,16.59,10.23.82.07,1.64.1,2.44.1,6.83,0,12.94-2.49,17.69-7.21,12.41-12.34,12.05-36.44,8.78-49.69-1.35-7.41-4.12-15.26-8.23-23.37,7.15-6.52,15.3-10.28,22.09-10.16,5.24.09,8.77,1.53,11.44,4.68,10.41,12.25,5.24,45.74-.46,63.97-.73,2.32-.46,4.77.75,6.91,1.34,2.36,3.72,4.11,6.55,4.8,5.44,1.31,11.11-1.61,12.65-6.52.18-.56,4.32-13.85,6.26-30,2.78-23.09-.36-40.14-9.32-50.7ZM528.59,421.13c-.91.9-1.57,1.16-2.83,1.06-.08-.08-.2-.24-.37-.52-4.1-6.81-1.38-26.73,5.09-41.25.77,2.43,1.37,4.8,1.77,7.07.04.21.08.41.13.63,2.8,11.01,1.77,27.47-3.81,33.01Z"/>
    <g>
      <polygon class="cls-5" points="452.83 66.14 433.5 44.4 455.32 25.16 474.47 47.07 452.83 66.14"/>
      <polygon class="cls-4" points="296.03 211.33 299.41 199.15 311.58 202.59 308.09 214.74 296.03 211.33"/>
      <path class="cls-5" d="M275.49,50.95L377.77,0c14.15,28.34,2.14,61.96-24.54,75.63-27.52,14.09-61.59,5.49-77.74-24.67Z"/>
      <polygon class="cls-2" points="501.66 130.07 479.04 127.87 490.15 102.55 501.66 130.07"/>
      <path class="cls-2" d="M269.89,150.22c-7.76.09-15.7-8.44-16.55-13.99-1.3-8.47,1.8-18.7,9.53-20.99,13.02-3.86,23.54,1,26.09,13.94,1.77,9.02-4.07,20.86-19.06,21.04Z"/>
      <path class="cls-5" d="M471.97,145.71c4.81,9.66,7.53,20.54,7.53,32.07,0,39.81-32.27,72.08-72.08,72.08-23.46,0-44.3-11.22-57.46-28.58-8.21,17.24-12.81,36.52-12.81,56.89h264.98c0-72.39-58.06-131.21-130.15-132.46Z"/>
      <circle class="cls-1" cx="407.42" cy="177.77" r="62.22"/>
    </g>
  </g>
</svg>