<?xml version="1.0" encoding="UTF-8"?>
<svg id="Layer_2" data-name="Layer 2" xmlns="http://www.w3.org/2000/svg" viewBox="0 0 896.44 177">
  <defs>
    <style>
      .cls-1 {
        fill: #ffe01b;
      }

      .cls-2 {
        fill: #fff;
      }

      .cls-3 {
        fill: #1feac1;
      }

      .cls-4 {
        fill: #f1d125;
      }

      .cls-5 {
        fill: #51e6e3;
      }
    </style>
  </defs>
  <g id="Layer_1-2" data-name="Layer 1">
    <g>
      <g>
        <g>
          <path class="cls-1" d="M848.37,86.41c-2.42-7.9-8.93-12.11-17.05-11.29-6.57.66-11.43,4.38-16.48,9.47l4.23-35.11-17.5.04-10.42,86.07,10.56.07c2.88.02,4.6-1.86,5.61-5.01,4.67,4.81,10.67,6.89,17.31,5.54,19.56-3.98,29.39-31.97,23.75-49.78ZM826.53,118.16c-3.88,5.68-10.67,6.73-16.22,2.61.61-4.69.89-9.32,1.89-13.99,1.38-6.43,8.05-20.07,15.34-18.2,6.86,1.76,5.75,19.71-1.01,29.59Z"/>
          <path class="cls-1" d="M762.64,76.14c-21.58,5.24-34.57,27.74-28.45,48.85,2.76,9.52,12.4,13.77,21.34,10.46,4.69-1.73,7.8-4.99,11.41-8.93l.41,4.98c.18,2.17,2.13,4.12,4.48,4.12l10.73-.04,7.23-57.92c-8.81-2.81-18.08-3.73-27.15-1.52ZM768.66,104.19c-1.12,5.75-6.22,19.25-13.43,18.05-6.34-1.05-6.39-17.61.26-27.12,3.59-5.15,9.1-8.25,15.43-7.8-.7,5.72-1.17,11.27-2.26,16.87Z"/>
          <path class="cls-1" d="M882.87,101.36l-9.71-4.22c-2.09-.91-3.54-3.16-3.32-5.1.23-2.02,1.7-3.85,3.76-4.38,4.24-1.09,8.04-.06,11.82,2.07,1.41.8,4.46,1.38,5.52-.06l5.51-7.48c-6.88-6.62-15.93-8.42-25.04-6.55-11.83,2.42-19.47,13.34-16.86,25.27.89,4.08,4.17,7.28,8.02,8.84l9.88,4.01c1.97.8,3.48,2.97,3.48,4.74,0,2.04-1.28,4.21-3.31,5.02-4.37,1.73-8.94.54-12.57-2.26-2.56-1.97-6.11-1.69-7.92,1.06l-4.49,6.83c8.38,8.68,23.17,9.53,33.58,3.6,8.11-4.62,12.18-13.55,10.02-22.39-1.03-4.22-4.52-7.33-8.39-9.01Z"/>
          <polygon class="cls-1" points="716.7 49.51 706.26 135.43 723.92 135.43 734.35 49.51 716.7 49.51"/>
        </g>
        <g>
          <path class="cls-3" d="M516.3,84.71c-11.14-14.64-33.65-12.86-45.03.67-8.32,9.88-9.48,23.77-3.03,35.11,5.84,10.27,17.66,16.56,30.07,15.32,7.18-.72,13.08-4.03,17.74-9.97,1.19,7.17-.68,14.6-6.51,19.01-8.01,6.07-22.67,5.09-27.78-4.6l-14.25.06c4.59,16.29,21.32,23.35,36.52,20.69,16.09-2.82,26.03-15.74,26.04-31.64l.02-53.29-13.57-.05-.21,8.7ZM510.85,118.13c-8.57,7.96-22,6.8-29.04-2.28-3.75-4.83-4.49-10.82-2.52-16.8,1.63-4.95,5.87-9.34,11.58-11.27,7.94-2.67,16.55-.47,21.81,6.14,5.82,7.31,5.29,17.59-1.84,24.22Z"/>
          <path class="cls-3" d="M370.32,118.74l-.42-22.47c-.09-4.62-1.67-9.2-4.29-12.86-4.5-6.26-11.81-9.04-19.43-8.88-8.18.17-15.29,3.94-19.63,11.2-3.34-6.43-9.09-10.01-15.91-10.99-8.32-1.19-15.69,1.65-20.99,8.57l-.56-7.32-13.37.12.08,59.58,13.51-.11.14-35.43c.03-7.78,6.55-13.18,14.01-13.08,6.74.09,12.68,4.93,12.7,11.95l.1,36.64h13.55s.09-34.99.09-34.99c.02-7.74,5.62-13.49,13.81-13.41,7.2.07,12.6,5.32,12.66,12.3l.21,21.7c.07,7.15,5.24,12.71,12.07,14.01,3.08.58,5.84.47,9.28.23l-.12-13.03c-3.11.32-7.42-.45-7.48-3.73Z"/>
          <path class="cls-3" d="M451.21,121.15c-1.02-.89-1.8-3.13-1.8-4.74l-.06-40.35-13.57-.06-.3,8.67c-10.83-12.99-29.34-13.05-41.28-3.61-7.92,6.26-12.41,16.12-11.65,26.87,1.41,19.81,21.1,33.22,40.08,27.59,5.8-1.72,10.23-5.06,13.86-10.14,3.46,9.72,11.57,10.9,20.39,10.19l-.09-12.86c-2.99-.2-4.33-.45-5.6-1.56ZM432.83,114.37c-5.47,9.07-16.98,12.01-26.16,7.39-5.67-2.85-9.17-8.22-9.93-13.84-.88-6.49,1.5-12.58,6.49-16.69,8.93-7.34,22.32-5.67,28.96,3.74,4.11,5.82,4.48,13.01.63,19.4Z"/>
          <path class="cls-3" d="M702.41,102.31c-1.7-16.16-14.55-27.42-30.65-27.91-14.73-.45-27.71,8.11-31.93,21.97-4.18,13.7,1.24,28.76,14,36.02,16.43,9.34,41.53,3.68,47.18-15.24l-14.44-.08c-3.37,5.42-9.05,7.87-15.65,7.78-8.86-.12-16.49-5.59-18.29-14.31l49.16-.02c1.06-2.63.9-5.4.61-8.2ZM653.09,99.46c2.31-8.44,10.15-13.26,18.68-12.82,7.28.44,14.02,4.23,15.94,12.73l-34.62.09Z"/>
          <polygon class="cls-3" points="248.66 135.7 262.36 135.63 262.36 76 248.63 76.1 248.66 135.7"/>
          <path class="cls-3" d="M254.63,50.21c-3.68.35-6.32,2.89-7.17,5.93-.98,3.49.37,6.87,2.81,8.8,2.9,2.29,6.61,2.4,9.93.42,3.61-2.15,4.63-6.33,3.3-9.9-1.29-3.47-4.85-5.63-8.87-5.25Z"/>
          <polygon class="cls-3" points="545.37 135.68 559.16 135.67 559.17 76.02 545.35 76.11 545.37 135.68"/>
        </g>
        <path class="cls-3" d="M625.4,82c-4.14-4.87-10.18-7.51-17.48-7.64-7.03-.13-14.4,2.57-20.93,7.63-1.91-2.66-3.32-4.3-3.49-4.51-2.22-2.56-6.21-3.05-9.1-1.12-1.46.97-2.42,2.47-2.64,4.1-.22,1.6.27,3.18,1.37,4.45.02.03,2.18,2.54,4.77,6.52-.9,1.23-1.74,2.51-2.5,3.8-6.4,10.27-11.73,31.77-5.51,42.1,2.3,3.82,6.05,6.13,10.56,6.51.52.04,1.04.07,1.55.07,4.34,0,8.23-1.59,11.25-4.59,7.9-7.85,7.67-23.19,5.59-31.62-.86-4.71-2.62-9.71-5.23-14.87,4.55-4.15,9.74-6.54,14.06-6.46,3.33.06,5.58.98,7.28,2.98,6.63,7.79,3.34,29.1-.29,40.71-.46,1.47-.29,3.04.48,4.4.85,1.5,2.37,2.62,4.17,3.05,3.46.84,7.07-1.02,8.05-4.15.11-.35,2.75-8.81,3.98-19.09,1.77-14.69-.23-25.54-5.93-32.26ZM583.5,131.21c-.58.57-1,.74-1.8.68-.05-.05-.13-.15-.23-.33-2.61-4.34-.88-17.01,3.24-26.25.49,1.55.87,3.05,1.13,4.5.02.13.05.26.09.4,1.78,7.01,1.12,17.48-2.42,21Z"/>
      </g>
      <circle class="cls-1" cx="552.26" cy="53.44" r="13.81"/>
    </g>
    <g>
      <polygon class="cls-5" points="127.13 42.08 114.83 28.25 128.71 16.01 140.9 29.95 127.13 42.08"/>
      <polygon class="cls-4" points="27.35 134.48 29.51 126.73 37.25 128.91 35.03 136.65 27.35 134.48"/>
      <path class="cls-5" d="M14.28,32.42L79.37,0c9,18.03,1.36,39.43-15.61,48.12-17.51,8.97-39.19,3.49-49.47-15.7Z"/>
      <polygon class="cls-2" points="158.2 82.77 143.81 81.37 150.88 65.26 158.2 82.77"/>
      <path class="cls-2" d="M10.72,95.59c-4.94.06-9.99-5.37-10.53-8.9-.83-5.39,1.15-11.9,6.06-13.36,8.28-2.46,14.98.63,16.6,8.87,1.13,5.74-2.59,13.27-12.13,13.39Z"/>
      <path class="cls-5" d="M139.31,92.72c3.06,6.15,4.79,13.07,4.79,20.4,0,25.33-20.54,45.87-45.87,45.87-14.93,0-28.19-7.14-36.57-18.18-5.22,10.97-8.15,23.24-8.15,36.2h168.61c0-46.06-36.94-83.49-82.82-84.29Z"/>
      <circle class="cls-1" cx="98.23" cy="113.12" r="39.59"/>
    </g>
  </g>
</svg>