<?xml version="1.0" encoding="UTF-8"?>
<svg id="Layer_2" data-name="Layer 2" xmlns="http://www.w3.org/2000/svg" viewBox="0 0 349.08 278.16">
  <defs>
    <style>
      .cls-1 {
        fill: #ffe01b;
      }

      .cls-2 {
        fill: #fff;
      }

      .cls-3 {
        fill: #f1d125;
      }

      .cls-4 {
        fill: #51e6e3;
      }
    </style>
  </defs>
  <g id="Layer_1-2" data-name="Layer 1">
    <g>
      <polygon class="cls-4" points="199.78 66.14 180.46 44.4 202.27 25.16 221.43 47.07 199.78 66.14"/>
      <polygon class="cls-3" points="42.98 211.33 46.37 199.15 58.53 202.59 55.05 214.74 42.98 211.33"/>
      <path class="cls-4" d="M22.45,50.95L124.73,0c14.15,28.34,2.14,61.96-24.54,75.63-27.52,14.09-61.59,5.49-77.74-24.67Z"/>
      <polygon class="cls-2" points="248.62 130.07 226 127.87 237.11 102.55 248.62 130.07"/>
      <path class="cls-2" d="M16.84,150.22c-7.76.09-15.7-8.44-16.55-13.99-1.3-8.47,1.8-18.7,9.53-20.99,13.02-3.86,23.54,1,26.09,13.94,1.77,9.02-4.07,20.86-19.06,21.04Z"/>
      <path class="cls-4" d="M218.93,145.71c4.81,9.66,7.53,20.54,7.53,32.07,0,39.81-32.27,72.08-72.08,72.08-23.46,0-44.3-11.22-57.46-28.58-8.21,17.24-12.81,36.52-12.81,56.89h264.98c0-72.39-58.06-131.21-130.15-132.46Z"/>
      <circle class="cls-1" cx="154.37" cy="177.77" r="62.22"/>
    </g>
  </g>
</svg>